<mxfile host="app.diagrams.net" agent="Mozilla/5.0 (Windows NT 10.0; Win64; x64) AppleWebKit/537.36 (KHTML, like Gecko) Chrome/130.0.0.0 Safari/537.36" version="24.8.4">
  <diagram name="Trang-1" id="s8NlFE9hhQs3d9xc8xhg">
    <mxGraphModel dx="910" dy="532" grid="0" gridSize="10" guides="1" tooltips="1" connect="1" arrows="1" fold="1" page="1" pageScale="1" pageWidth="1169" pageHeight="827" background="#000000" math="0" shadow="0">
      <root>
        <mxCell id="0" />
        <mxCell id="1" parent="0" />
        <mxCell id="EQ-JmZBBZS-joNOb5Dbg-17" value="" style="edgeStyle=orthogonalEdgeStyle;rounded=0;orthogonalLoop=1;jettySize=auto;html=1;" parent="1" source="1_h4f9yt8FSkCilIeWEh-53" target="WDAEaCLZzi6RoMeNFS60-1" edge="1">
          <mxGeometry relative="1" as="geometry" />
        </mxCell>
        <mxCell id="EQ-JmZBBZS-joNOb5Dbg-46" value="" style="edgeStyle=orthogonalEdgeStyle;rounded=0;orthogonalLoop=1;jettySize=auto;html=1;" parent="1" source="1_h4f9yt8FSkCilIeWEh-53" target="EQ-JmZBBZS-joNOb5Dbg-16" edge="1">
          <mxGeometry relative="1" as="geometry" />
        </mxCell>
        <mxCell id="1_h4f9yt8FSkCilIeWEh-53" value="&lt;font color=&quot;#ffffff&quot;&gt;Khách hàng&lt;/font&gt;" style="rounded=0;whiteSpace=wrap;html=1;fillColor=#000000;strokeColor=#FFFFFF;" parent="1" vertex="1">
          <mxGeometry x="144" y="152" width="120" height="60" as="geometry" />
        </mxCell>
        <mxCell id="1_h4f9yt8FSkCilIeWEh-54" value="" style="endArrow=classic;html=1;rounded=0;strokeColor=#FFFFFF;exitX=1;exitY=0.5;exitDx=0;exitDy=0;" parent="1" source="1_h4f9yt8FSkCilIeWEh-53" target="WDAEaCLZzi6RoMeNFS60-1" edge="1">
          <mxGeometry width="50" height="50" relative="1" as="geometry">
            <mxPoint x="129" y="222.5" as="sourcePoint" />
            <mxPoint x="228" y="214" as="targetPoint" />
            <Array as="points" />
          </mxGeometry>
        </mxCell>
        <mxCell id="1_h4f9yt8FSkCilIeWEh-89" value="" style="edgeStyle=orthogonalEdgeStyle;rounded=0;orthogonalLoop=1;jettySize=auto;html=1;" parent="1" edge="1">
          <mxGeometry relative="1" as="geometry">
            <mxPoint x="242" y="671" as="sourcePoint" />
            <mxPoint x="278" y="671" as="targetPoint" />
          </mxGeometry>
        </mxCell>
        <mxCell id="WDAEaCLZzi6RoMeNFS60-1" value="&lt;font color=&quot;#ffffff&quot;&gt;Cập nhật tài khoản&lt;/font&gt;" style="rounded=0;whiteSpace=wrap;html=1;fillColor=#000000;strokeColor=#FFFFFF;" parent="1" vertex="1">
          <mxGeometry x="294" y="154" width="120" height="60" as="geometry" />
        </mxCell>
        <mxCell id="EQ-JmZBBZS-joNOb5Dbg-2" style="edgeStyle=orthogonalEdgeStyle;rounded=0;orthogonalLoop=1;jettySize=auto;html=1;exitX=0.5;exitY=1;exitDx=0;exitDy=0;" parent="1" source="WDAEaCLZzi6RoMeNFS60-1" target="WDAEaCLZzi6RoMeNFS60-1" edge="1">
          <mxGeometry relative="1" as="geometry" />
        </mxCell>
        <mxCell id="EQ-JmZBBZS-joNOb5Dbg-50" value="" style="edgeStyle=orthogonalEdgeStyle;rounded=0;orthogonalLoop=1;jettySize=auto;html=1;" parent="1" source="EQ-JmZBBZS-joNOb5Dbg-3" target="WDAEaCLZzi6RoMeNFS60-1" edge="1">
          <mxGeometry relative="1" as="geometry" />
        </mxCell>
        <mxCell id="EQ-JmZBBZS-joNOb5Dbg-88" value="" style="edgeStyle=orthogonalEdgeStyle;rounded=0;orthogonalLoop=1;jettySize=auto;html=1;" parent="1" source="EQ-JmZBBZS-joNOb5Dbg-3" target="EQ-JmZBBZS-joNOb5Dbg-51" edge="1">
          <mxGeometry relative="1" as="geometry" />
        </mxCell>
        <mxCell id="EQ-JmZBBZS-joNOb5Dbg-3" value="&lt;font color=&quot;#ffffff&quot;&gt;Chọn cập nhật tài khoản&lt;/font&gt;" style="rounded=0;whiteSpace=wrap;html=1;fillColor=#000000;strokeColor=#FFFFFF;" parent="1" vertex="1">
          <mxGeometry x="456" y="154" width="120" height="60" as="geometry" />
        </mxCell>
        <mxCell id="EQ-JmZBBZS-joNOb5Dbg-8" value="" style="endArrow=classic;html=1;rounded=0;strokeColor=#FFFFFF;" parent="1" source="WDAEaCLZzi6RoMeNFS60-1" target="EQ-JmZBBZS-joNOb5Dbg-3" edge="1">
          <mxGeometry width="50" height="50" relative="1" as="geometry">
            <mxPoint x="235" y="218" as="sourcePoint" />
            <mxPoint x="447" y="184" as="targetPoint" />
            <Array as="points">
              <mxPoint x="432" y="184" />
            </Array>
          </mxGeometry>
        </mxCell>
        <mxCell id="EQ-JmZBBZS-joNOb5Dbg-39" value="" style="edgeStyle=orthogonalEdgeStyle;rounded=0;orthogonalLoop=1;jettySize=auto;html=1;" parent="1" edge="1">
          <mxGeometry relative="1" as="geometry">
            <mxPoint x="252.0588235294117" y="446.9411764705883" as="sourcePoint" />
            <mxPoint x="252.52941176470586" y="472" as="targetPoint" />
          </mxGeometry>
        </mxCell>
        <mxCell id="EQ-JmZBBZS-joNOb5Dbg-104" style="edgeStyle=orthogonalEdgeStyle;rounded=0;orthogonalLoop=1;jettySize=auto;html=1;exitX=0.5;exitY=1;exitDx=0;exitDy=0;" parent="1" source="EQ-JmZBBZS-joNOb5Dbg-15" edge="1">
          <mxGeometry relative="1" as="geometry">
            <mxPoint x="807" y="520.212158203125" as="targetPoint" />
          </mxGeometry>
        </mxCell>
        <mxCell id="EQ-JmZBBZS-joNOb5Dbg-16" value="&lt;font color=&quot;#ffffff&quot;&gt;BẮT ĐẦU&lt;/font&gt;" style="rounded=0;whiteSpace=wrap;html=1;fillColor=#000000;strokeColor=#FFFFFF;" parent="1" vertex="1">
          <mxGeometry x="15" y="152" width="102" height="60" as="geometry" />
        </mxCell>
        <mxCell id="EQ-JmZBBZS-joNOb5Dbg-18" value="" style="endArrow=classic;html=1;rounded=0;strokeColor=#FFFFFF;entryX=0;entryY=0.5;entryDx=0;entryDy=0;" parent="1" source="EQ-JmZBBZS-joNOb5Dbg-16" target="1_h4f9yt8FSkCilIeWEh-53" edge="1">
          <mxGeometry width="50" height="50" relative="1" as="geometry">
            <mxPoint x="322" y="192" as="sourcePoint" />
            <mxPoint x="165" y="176" as="targetPoint" />
            <Array as="points" />
          </mxGeometry>
        </mxCell>
        <mxCell id="EQ-JmZBBZS-joNOb5Dbg-22" value="" style="endArrow=classic;html=1;rounded=0;strokeColor=#FFFFFF;entryX=0;entryY=0.5;entryDx=0;entryDy=0;" parent="1" source="EQ-JmZBBZS-joNOb5Dbg-3" target="EQ-JmZBBZS-joNOb5Dbg-51" edge="1">
          <mxGeometry width="50" height="50" relative="1" as="geometry">
            <mxPoint x="312.9999999999998" y="503.07647058823545" as="sourcePoint" />
            <mxPoint x="380" y="501.5" as="targetPoint" />
            <Array as="points" />
          </mxGeometry>
        </mxCell>
        <mxCell id="EQ-JmZBBZS-joNOb5Dbg-40" value="" style="rhombus;whiteSpace=wrap;html=1;fillColor=none;strokeColor=#FFFFFF;" parent="1" vertex="1">
          <mxGeometry x="71" y="269" width="80" height="80" as="geometry" />
        </mxCell>
        <mxCell id="EQ-JmZBBZS-joNOb5Dbg-43" value="Hợp lệ" style="edgeLabel;html=1;align=center;verticalAlign=middle;resizable=0;points=[];rotation=0;fontSize=15;fontColor=#FFFFFF;labelBackgroundColor=#000000;" parent="1" vertex="1" connectable="0">
          <mxGeometry x="41.004212588393784" y="268.9967174661629" as="geometry">
            <mxPoint x="29" y="128" as="offset" />
          </mxGeometry>
        </mxCell>
        <mxCell id="EQ-JmZBBZS-joNOb5Dbg-51" value="&lt;font color=&quot;#ffffff&quot;&gt;Nhập thông tin cập nhật&lt;/font&gt;" style="rounded=0;whiteSpace=wrap;html=1;fillColor=#000000;strokeColor=#FFFFFF;" parent="1" vertex="1">
          <mxGeometry x="611" y="154" width="120" height="60" as="geometry" />
        </mxCell>
        <mxCell id="EQ-JmZBBZS-joNOb5Dbg-70" value="" style="edgeStyle=orthogonalEdgeStyle;rounded=0;orthogonalLoop=1;jettySize=auto;html=1;" parent="1" edge="1">
          <mxGeometry relative="1" as="geometry">
            <mxPoint x="532.5" y="603.5333333333333" as="sourcePoint" />
            <mxPoint x="281.53333333333353" y="492" as="targetPoint" />
          </mxGeometry>
        </mxCell>
        <mxCell id="EQ-JmZBBZS-joNOb5Dbg-69" value="" style="edgeStyle=orthogonalEdgeStyle;rounded=0;orthogonalLoop=1;jettySize=auto;html=1;" parent="1" source="EQ-JmZBBZS-joNOb5Dbg-15" edge="1">
          <mxGeometry relative="1" as="geometry">
            <mxPoint x="443" y="315.5333333333333" as="sourcePoint" />
            <mxPoint x="593" y="571" as="targetPoint" />
          </mxGeometry>
        </mxCell>
        <mxCell id="EQ-JmZBBZS-joNOb5Dbg-92" value="" style="edgeStyle=orthogonalEdgeStyle;rounded=0;orthogonalLoop=1;jettySize=auto;html=1;" parent="1" edge="1">
          <mxGeometry relative="1" as="geometry">
            <mxPoint x="443" y="315.5333333333333" as="sourcePoint" />
            <mxPoint x="276.5" y="446" as="targetPoint" />
          </mxGeometry>
        </mxCell>
        <mxCell id="EQ-JmZBBZS-joNOb5Dbg-93" value="" style="endArrow=classic;html=1;rounded=0;strokeColor=#FFFFFF;exitX=0.5;exitY=1;exitDx=0;exitDy=0;entryX=0.5;entryY=0;entryDx=0;entryDy=0;" parent="1" source="EQ-JmZBBZS-joNOb5Dbg-40" target="d6anSQsqKGNdYOmueuAH-6" edge="1">
          <mxGeometry width="50" height="50" relative="1" as="geometry">
            <mxPoint x="284" y="202" as="sourcePoint" />
            <mxPoint x="110" y="445" as="targetPoint" />
            <Array as="points" />
          </mxGeometry>
        </mxCell>
        <mxCell id="EQ-JmZBBZS-joNOb5Dbg-99" value="" style="endArrow=classic;html=1;rounded=0;strokeColor=#FFFFFF;" parent="1" target="EQ-JmZBBZS-joNOb5Dbg-15" edge="1">
          <mxGeometry width="50" height="50" relative="1" as="geometry">
            <mxPoint x="170.5" y="477.5" as="sourcePoint" />
            <mxPoint x="216" y="477.9292452830189" as="targetPoint" />
            <Array as="points" />
          </mxGeometry>
        </mxCell>
        <mxCell id="d6anSQsqKGNdYOmueuAH-1" value="" style="endArrow=classic;html=1;rounded=0;strokeColor=#FFFFFF;exitX=0.577;exitY=0.938;exitDx=0;exitDy=0;entryX=0.5;entryY=0;entryDx=0;entryDy=0;exitPerimeter=0;" parent="1" source="jWdb0bTpliuhG718ePFT-1" target="EQ-JmZBBZS-joNOb5Dbg-40" edge="1">
          <mxGeometry width="50" height="50" relative="1" as="geometry">
            <mxPoint x="274" y="192" as="sourcePoint" />
            <mxPoint x="304" y="193" as="targetPoint" />
            <Array as="points">
              <mxPoint x="834" y="266" />
            </Array>
          </mxGeometry>
        </mxCell>
        <mxCell id="d6anSQsqKGNdYOmueuAH-4" value="" style="endArrow=classic;html=1;rounded=0;strokeColor=#FFFFFF;exitX=1;exitY=0.5;exitDx=0;exitDy=0;entryX=0.5;entryY=0;entryDx=0;entryDy=0;" parent="1" source="EQ-JmZBBZS-joNOb5Dbg-40" target="EQ-JmZBBZS-joNOb5Dbg-51" edge="1">
          <mxGeometry width="50" height="50" relative="1" as="geometry">
            <mxPoint x="284" y="202" as="sourcePoint" />
            <mxPoint x="314" y="203" as="targetPoint" />
            <Array as="points">
              <mxPoint x="919" y="306" />
              <mxPoint x="917" y="99" />
              <mxPoint x="671" y="103" />
            </Array>
          </mxGeometry>
        </mxCell>
        <mxCell id="d6anSQsqKGNdYOmueuAH-5" value="không hợp lệ" style="edgeLabel;html=1;align=center;verticalAlign=middle;resizable=0;points=[];rotation=0;fontSize=15;fontColor=#FFFFFF;labelBackgroundColor=#000000;" parent="1" vertex="1" connectable="0">
          <mxGeometry x="329.0042125883938" y="193.99671746616292" as="geometry">
            <mxPoint x="29" y="128" as="offset" />
          </mxGeometry>
        </mxCell>
        <mxCell id="d6anSQsqKGNdYOmueuAH-6" value="&lt;font color=&quot;#ffffff&quot;&gt;Cập nhật CSDL&lt;/font&gt;" style="rounded=0;whiteSpace=wrap;html=1;fillColor=#000000;strokeColor=#FFFFFF;" parent="1" vertex="1">
          <mxGeometry x="50.5" y="446" width="121" height="65" as="geometry" />
        </mxCell>
        <mxCell id="EQ-JmZBBZS-joNOb5Dbg-15" value="&lt;font color=&quot;#ffffff&quot;&gt;Cập nhật hệ thống&lt;/font&gt;" style="rounded=0;whiteSpace=wrap;html=1;fillColor=#000000;strokeColor=#FFFFFF;" parent="1" vertex="1">
          <mxGeometry x="261" y="446" width="121" height="65" as="geometry" />
        </mxCell>
        <mxCell id="d6anSQsqKGNdYOmueuAH-8" value="&lt;font color=&quot;#ffffff&quot;&gt;KẾT THÚC&lt;/font&gt;" style="rounded=0;whiteSpace=wrap;html=1;fillColor=#000000;strokeColor=#FFFFFF;" parent="1" vertex="1">
          <mxGeometry x="442" y="446" width="114" height="65" as="geometry" />
        </mxCell>
        <mxCell id="d6anSQsqKGNdYOmueuAH-9" value="" style="endArrow=classic;html=1;rounded=0;strokeColor=#FFFFFF;exitX=1;exitY=0.5;exitDx=0;exitDy=0;" parent="1" source="EQ-JmZBBZS-joNOb5Dbg-15" target="d6anSQsqKGNdYOmueuAH-8" edge="1">
          <mxGeometry width="50" height="50" relative="1" as="geometry">
            <mxPoint x="347" y="489" as="sourcePoint" />
            <mxPoint x="379" y="489" as="targetPoint" />
            <Array as="points" />
          </mxGeometry>
        </mxCell>
        <mxCell id="jWdb0bTpliuhG718ePFT-1" value="&lt;font color=&quot;#ffffff&quot;&gt;Kiểm tra hợp lệ&lt;/font&gt;" style="rounded=0;whiteSpace=wrap;html=1;fillColor=#000000;strokeColor=#FFFFFF;" vertex="1" parent="1">
          <mxGeometry x="764" y="154" width="120" height="60" as="geometry" />
        </mxCell>
        <mxCell id="jWdb0bTpliuhG718ePFT-2" value="" style="endArrow=classic;html=1;rounded=0;strokeColor=#FFFFFF;entryX=0;entryY=0.5;entryDx=0;entryDy=0;exitX=1;exitY=0.5;exitDx=0;exitDy=0;" edge="1" parent="1" source="EQ-JmZBBZS-joNOb5Dbg-51" target="jWdb0bTpliuhG718ePFT-1">
          <mxGeometry width="50" height="50" relative="1" as="geometry">
            <mxPoint x="586" y="194" as="sourcePoint" />
            <mxPoint x="621" y="194" as="targetPoint" />
            <Array as="points" />
          </mxGeometry>
        </mxCell>
      </root>
    </mxGraphModel>
  </diagram>
</mxfile>
